<svg width="20" height="20" viewBox="0 0 20 20" fill="none" xmlns="http://www.w3.org/2000/svg">
<path fill-rule="evenodd" clip-rule="evenodd" d="M10 1.75C5.44365 1.75 1.75 5.44365 1.75 10C1.75 14.5563 5.44365 18.25 10 18.25C14.5563 18.25 18.25 14.5563 18.25 10C18.25 5.44365 14.5563 1.75 10 1.75ZM0.25 10C0.25 4.61522 4.61522 0.25 10 0.25C15.3848 0.25 19.75 4.61522 19.75 10C19.75 15.3848 15.3848 19.75 10 19.75C4.61522 19.75 0.25 15.3848 0.25 10Z" fill="#121929" fill-opacity="0.64"/>
<path fill-rule="evenodd" clip-rule="evenodd" d="M10 0.25C10.4142 0.25 10.75 0.585786 10.75 1V10C10.75 10.4142 10.4142 10.75 10 10.75C9.58579 10.75 9.25 10.4142 9.25 10V1C9.25 0.585786 9.58579 0.25 10 0.25Z" fill="#121929" fill-opacity="0.64"/>
<path fill-rule="evenodd" clip-rule="evenodd" d="M18.44 5.12481C18.6472 5.48349 18.5244 5.94221 18.1657 6.14939L2.58448 15.1494C2.22581 15.3566 1.76709 15.2337 1.55991 14.8751C1.35273 14.5164 1.47555 14.0577 1.83422 13.8505L17.4155 4.8505C17.7742 4.64332 18.2329 4.76613 18.44 5.12481Z" fill="#121929" fill-opacity="0.64"/>
</svg>
