<svg width="123" height="36" viewBox="0 0 123 36" fill="none" xmlns="http://www.w3.org/2000/svg">
<path d="M116.303 6.53706V5.04507e-08L115.121 0C112.2 -1.24621e-07 109.831 2.31117 109.831 5.16358V6.53706H116.303Z" fill="#D0005E"/>
<path d="M116.303 14.2283V12.8549H109.831V19.3919H111.013C113.936 19.3919 116.303 17.0793 116.303 14.2283Z" fill="#D0005E"/>
<path opacity="0.35" d="M116.303 6.53702V5.79053H109.831V6.53702H116.303Z" fill="#D0005E"/>
<path opacity="0.35" d="M116.303 13.6013V12.8547H109.831V13.6013H116.303Z" fill="#D0005E"/>
<path d="M103.135 6.53699H119.074C121.243 6.53699 123 8.2535 123 10.3692V12.8547H107.061C104.892 12.8547 103.135 11.1383 103.135 9.02248V6.53699Z" fill="#D0005E"/>
<path d="M6.74647 35.5918H0V17.4415H6.32831C8.1961 17.4415 11.3185 17.6864 13.716 19.945C15.8905 21.9859 16.3086 24.5982 16.3086 26.5574C16.3086 28.9521 15.6953 31.0746 13.8833 32.8434C12.4057 34.2856 9.92455 35.5918 6.74647 35.5918ZM4.82289 21.4416V31.5916H5.79862C6.9695 31.5916 8.61427 31.4828 9.86877 30.2854C10.4821 29.714 11.2906 28.5711 11.2906 26.5574C11.2906 24.8703 10.7609 23.4281 9.84092 22.5845C8.6979 21.5505 7.19252 21.4416 5.99376 21.4416H4.82289ZM25.9631 26.7207C25.2383 26.7207 24.4577 27.0472 23.9559 27.5099C23.3983 28.0269 23.0916 28.7888 23.0916 29.4964C23.0916 30.2311 23.4541 30.9385 23.9559 31.4283C24.4856 31.9454 25.2104 32.2448 25.9631 32.2448C26.688 32.2448 27.4127 31.9454 27.9425 31.4283C28.5 30.9113 28.8066 30.2038 28.8066 29.4964C28.8066 28.8433 28.5 28.0541 27.9425 27.5099C27.4407 27.0472 26.66 26.7207 25.9631 26.7207ZM33.4344 29.4964C33.4344 31.1291 32.8768 32.6801 31.5109 33.9863C29.866 35.5645 27.9425 36 25.9353 36C24.1232 36 22.116 35.6461 20.3875 33.9863C19.0215 32.6801 18.464 31.1291 18.464 29.4964C18.464 27.3194 19.4676 25.9044 20.3875 25.0336C21.419 24.0539 23.2311 23.02 25.9353 23.02C28.6952 23.02 30.4793 24.0812 31.5109 25.0336C32.4308 25.9044 33.4344 27.3194 33.4344 29.4964ZM36.0083 35.5918V23.4281H40.4688V24.952C41.6955 23.3737 43.3402 23.156 44.4275 23.156C45.7099 23.156 47.0758 23.4553 48.1074 24.4621C49.1668 25.4962 49.2783 26.5303 49.2783 27.8636V35.5918H44.8177V29.4419C44.8177 28.7344 44.8457 27.6731 44.2603 27.0745C43.842 26.6391 43.2845 26.5574 42.8384 26.5574C42.1415 26.5574 41.5561 26.8023 41.1937 27.1289C40.7476 27.537 40.4688 28.3262 40.4688 29.0609V35.5918H36.0083ZM62.6586 19.7818L61.7665 20.5165C60.6235 18.3395 58.6163 18.2851 58.1145 18.2851C55.9122 18.2851 54.6576 19.8361 54.6576 21.6594C54.6576 23.6186 56.0515 24.2717 57.9194 25.1696C59.7593 26.0404 60.6793 26.4214 61.6271 27.0745C62.4356 27.6187 63.6064 28.5711 63.6064 30.5848C63.6064 33.6326 60.9859 35.8911 57.8078 35.8911C55.4103 35.8911 54.1837 34.7754 53.4867 33.9863C52.7619 33.1699 52.4553 32.4624 52.288 31.9998L53.3474 31.51C53.5983 32.2175 54.0721 32.925 54.351 33.2516C55.1873 34.2856 56.5533 34.8026 57.8357 34.8026C60.3447 34.8026 62.3241 33.0067 62.3241 30.612C62.3241 29.6324 61.9337 28.5984 60.512 27.7548C59.9823 27.4554 58.895 26.9112 57.3618 26.1765C55.5218 25.3057 54.6019 24.8159 53.9607 23.7819C53.5425 23.1016 53.3752 22.4212 53.3752 21.7138C53.3752 19.6185 54.8248 17.1966 58.1423 17.1966C60.0102 17.1966 61.7107 18.0674 62.6586 19.7818ZM76.3654 26.4214V24.4894H77.4805V35.5918H76.3654V33.6053C75.2224 35.3196 73.4103 35.8911 71.9328 35.8911C68.9498 35.8911 66.3851 33.6869 66.3851 30.0405C66.3851 26.6119 68.6153 24.2445 71.9328 24.2445C73.717 24.2445 75.2782 24.9247 76.3654 26.4214ZM71.9886 25.2786C69.7305 25.2786 67.556 26.9384 67.556 29.9589C67.556 32.4624 69.145 34.8571 72.0164 34.8571C74.86 34.8571 76.4211 32.5168 76.4211 29.9589C76.4211 26.6663 73.9401 25.2786 71.9886 25.2786ZM81.4845 24.4894H82.5996V31.1834C82.5996 31.9726 82.6274 33.1427 83.3244 33.9591C84.0214 34.7754 85.0529 34.8571 85.5826 34.8571C86.1122 34.8571 87.1437 34.7754 87.8407 33.9591C88.5377 33.1427 88.5655 31.9726 88.5655 31.1834V24.4894H89.6806V31.4828C89.6806 32.3808 89.5969 33.5509 88.8164 34.5305C87.9522 35.619 86.5862 35.8911 85.5826 35.8911C84.5789 35.8911 83.213 35.619 82.3487 34.5305C81.5682 33.5509 81.4845 32.3808 81.4845 31.4828V24.4894ZM87.1159 18.7205L88.3146 19.4008L85.3874 22.8839L84.5511 22.4485L87.1159 18.7205ZM102.964 26.4214V15.7544H104.079V35.5918H102.964V33.6053C101.821 35.3196 100.009 35.8911 98.5591 35.8911C95.6881 35.8911 92.9835 33.8775 92.9835 29.9862C92.9835 25.9316 95.7995 24.2445 98.5591 24.2445C100.622 24.2445 102.072 25.1696 102.964 26.4214ZM98.5591 25.2786C96.2172 25.2786 94.1547 26.8568 94.1547 29.9589C94.1547 33.1971 96.3286 34.8571 98.6148 34.8571C100.873 34.8571 103.019 33.1971 103.019 29.9589C103.019 27.3738 101.374 25.2786 98.5591 25.2786ZM118.259 30.1766H108.529C108.529 33.0067 110.648 34.8571 113.046 34.8571C114.885 34.8571 116.279 33.7958 117.004 32.3264L117.951 32.8706C117.283 34.1224 115.777 35.8911 112.961 35.8911C109.421 35.8911 107.358 33.3332 107.358 30.095C107.358 26.2309 110.09 24.2445 112.878 24.2445C115.944 24.2445 118.259 26.6391 118.259 30.1766ZM108.612 29.1426H117.087C116.809 26.9384 115.136 25.2786 112.878 25.2786C110.564 25.2786 108.92 26.9929 108.612 29.1426Z" fill="black"/>
</svg>
