<svg width="13" height="12" viewBox="0 0 13 12" fill="none" xmlns="http://www.w3.org/2000/svg">
<rect x="0.25" width="12" height="12" rx="6" fill="#C2ED79"/>
<path d="M5.68743 7.50005C5.63774 7.49938 5.59009 7.48015 5.55384 7.44615L4.24134 6.13365C4.21144 6.09722 4.19616 6.05097 4.19847 6.0039C4.20078 5.95682 4.22052 5.91229 4.25385 5.87897C4.28717 5.84564 4.3317 5.8259 4.37877 5.82359C4.42585 5.82128 4.4721 5.83656 4.50853 5.86646L5.68743 7.04771L8.17884 4.55396C8.21527 4.52406 8.26152 4.50878 8.30859 4.51109C8.35566 4.5134 8.40019 4.53314 8.43352 4.56647C8.46684 4.59979 8.48658 4.64432 8.48889 4.6914C8.4912 4.73847 8.47592 4.78472 8.44603 4.82115L5.82103 7.44615C5.78478 7.48015 5.73713 7.49938 5.68743 7.50005Z" fill="#101828"/>
</svg>
